HIERARCHY
ROOT Hips
{
	OFFSET 0.00000 0.00000 0.00000
	CHANNELS 6 Xposition Yposition Zposition Zrotation Yrotation Xrotation 
	JOINT LHipJoint
	{
		OFFSET 0 0 0
		CHANNELS 3 Zrotation Yrotation Xrotation
		JOINT LeftUpLeg
		{
			OFFSET 1.56741 -1.82513 0.67319
			CHANNELS 3 Zrotation Yrotation Xrotation
			JOINT LeftLeg
			{
				OFFSET 2.35708 -6.47604 0.00000
				CHANNELS 3 Zrotation Yrotation Xrotation
				JOINT LeftFoot
				{
					OFFSET 2.70636 -7.43567 0.00000
					CHANNELS 3 Zrotation Yrotation Xrotation
					JOINT LeftToeBase
					{
						OFFSET 0.20427 -0.56122 2.08535
						CHANNELS 3 Zrotation Yrotation Xrotation
						End Site
						{
							OFFSET 0.00000 -0.00000 1.08535
						}
					}
				}
			}
		}
	}
	JOINT RHipJoint
	{
		OFFSET 0 0 0
		CHANNELS 3 Zrotation Yrotation Xrotation
		JOINT RightUpLeg
		{
			OFFSET -1.51422 -1.82513 0.67319
			CHANNELS 3 Zrotation Yrotation Xrotation
			JOINT RightLeg
			{
				OFFSET -2.48824 -6.83638 0.00000
				CHANNELS 3 Zrotation Yrotation Xrotation
				JOINT RightFoot
				{
					OFFSET -2.70033 -7.41909 0.00000
					CHANNELS 3 Zrotation Yrotation Xrotation
					JOINT RightToeBase
					{
						OFFSET -0.19750 -0.54263 2.22151
						CHANNELS 3 Zrotation Yrotation Xrotation
						End Site
						{
							OFFSET -0.00000 -0.00000 1.14915
						}
					}
				}
			}
		}
	}
	JOINT LowerBack
	{
		OFFSET 0 0 0
		CHANNELS 3 Zrotation Yrotation Xrotation
		JOINT Spine
		{
			OFFSET -0.01567 2.12874 -0.15842
			CHANNELS 3 Zrotation Yrotation Xrotation
			JOINT Spine1
			{
				OFFSET 0.06098 2.13326 -0.01043
				CHANNELS 3 Zrotation Yrotation Xrotation
				JOINT Neck
				{
					OFFSET 0 0 0
					CHANNELS 3 Zrotation Yrotation Xrotation
					JOINT Neck1
					{
						OFFSET -0.05040 1.78432 0.13387
						CHANNELS 3 Zrotation Yrotation Xrotation
						JOINT Head
						{
							OFFSET -0.00180 1.76880 -0.33303
							CHANNELS 3 Zrotation Yrotation Xrotation
							End Site
							{
								OFFSET 0.00734 1.81249 -0.12719
							}
						}
					}
				}
				JOINT LeftShoulder
				{
					OFFSET 0 0 0
					CHANNELS 3 Zrotation Yrotation Xrotation
					JOINT LeftArm
					{
						OFFSET 3.72199 0.94188 -0.54317
						CHANNELS 3 Zrotation Yrotation Xrotation
						JOINT LeftForeArm
						{
							OFFSET 5.14601 -0.00000 0.00000
							CHANNELS 3 Zrotation Yrotation Xrotation
							JOINT LeftHand
							{
								OFFSET 3.64452 -0.00000 -0.00000
								CHANNELS 3 Zrotation Yrotation Xrotation
								JOINT LeftFingerBase
								{
									OFFSET 0 0 0
									CHANNELS 3 Zrotation Yrotation Xrotation
									JOINT LeftHandIndex1
									{
										OFFSET 0.56228 -0.00000 0.00000
										CHANNELS 3 Zrotation Yrotation Xrotation
										End Site
										{
											OFFSET 0.45332 -0.00000 0.00000
										}
									}
								}
								JOINT LThumb
								{
									OFFSET 0 0 0
									CHANNELS 3 Zrotation Yrotation Xrotation
									End Site
									{
										OFFSET 0.46025 -0.00000 0.46025
									}
								}
							}
						}
					}
				}
				JOINT RightShoulder
				{
					OFFSET 0 0 0
					CHANNELS 3 Zrotation Yrotation Xrotation
					JOINT RightArm
					{
						OFFSET -3.30253 1.22679 -0.46941
						CHANNELS 3 Zrotation Yrotation Xrotation
						JOINT RightForeArm
						{
							OFFSET -5.33913 -0.00000 0.00000
							CHANNELS 3 Zrotation Yrotation Xrotation
							JOINT RightHand
							{
								OFFSET -3.56478 -0.00000 -0.00000
								CHANNELS 3 Zrotation Yrotation Xrotation
								JOINT RightFingerBase
								{
									OFFSET 0 0 0
									CHANNELS 3 Zrotation Yrotation Xrotation
									JOINT RightHandIndex1
									{
										OFFSET -0.85747 -0.00000 0.00000
										CHANNELS 3 Zrotation Yrotation Xrotation
										End Site
										{
											OFFSET -0.69132 -0.00000 0.00000
										}
									}
								}
								JOINT RThumb
								{
									OFFSET 0 0 0
									CHANNELS 3 Zrotation Yrotation Xrotation
									End Site
									{
										OFFSET -0.70187 -0.00000 0.70187
									}
								}
							}
						}
					}
				}
			}
		}
	}
}
MOTION
Frames: 14
Frame Time: 0.00854701
0.00 0.00 0.00 0 0 0 0 0 0 -21 0 0 0 0 0 0 0 0 0 0 0 0 0 0 21 0 0 0 0 0 0 0 0 0 0 0 0 0 0 0 0 0 0 0 0 0 0 -16 0 0 21 0 0 11 0 0 0 -8 0 0 0 0 0 0 0 0 0 0 0 0 0 0 0 0 0 0 0 0 8 0 0 0 0 0 0 0 0 0 0 0 0 0 0 0 0 0
0.00 0.00 0.00 -2.1631 -10.5698 3.9745 0.0000 0.0000 0.0000 -3.8827 -9.8374 -30.3256 2.3787 9.6139 27.7352 -0.0113 3.0107 -3.5903 1.2013 -6.9541 -19.5794 0.0000 0.0000 0.0000 28.5556 2.9074 -3.4679 -2.1990 -9.2687 26.6397 -0.7093 -7.3844 -20.2657 -0.1196 -2.2299 6.1414 2.7029 0.4346 8.4035 2.2490 0.8305 3.0018 0.7219 0.4091 -1.5984 -5.0432 4.2200 -13.0770 -4.3808 8.3908 26.0234 0.3571 2.8156 10.5353 0.0000 -0.0000 0.0000 -92.3707 -0.2127 33.6514 31.2369 -41.9302 -12.2278 -0.0000 0.0000 -8.6490 16.8480 18.0504 5.3606 -7.1250 0.0000 -0.0000 -10.8923 48.4770 -0.9446 0.0000 -0.0000 0.0000 83.3490 -5.5216 39.0984 -41.9788 49.1995 -19.9245 0.0000 0.0000 7.4354 -12.3825 8.7607 -1.9152 7.1250 -0.0000 -0.0000 10.4362 -21.0742 6.0855
0.00 0.00 0.00 -2.8268 -3.9470 6.8054 0.0000 0.0000 0.0000 -14.1911 -7.4304 -28.3101 2.4575 9.7602 28.2037 0.0190 2.7154 -4.8728 0.3126 -3.5942 -9.9378 0.0000 0.0000 0.0000 21.8307 1.2584 -4.9880 -5.2133 -13.6200 41.7362 0.0446 -6.9425 -8.7492 -0.2481 3.2049 -8.8497 0.9977 0.9675 8.3571 2.7747 1.4178 3.0408 2.1673 0.6975 -1.5843 -3.4388 2.6996 -12.0162 -2.3446 5.2089 25.2222 0.3858 1.8119 9.9850 0.0000 0.0000 0.0000 -93.4129 -4.6966 48.7599 34.1117 -44.1673 -14.1908 -0.0000 0.0000 -15.9510 11.1512 19.9979 3.8566 -7.1250 0.0000 -0.0000 -16.9697 49.5587 -1.9578 0.0000 0.0000 0.0000 85.1489 3.5517 33.5240 -30.4452 41.2720 -11.7022 0.0000 -0.0000 -0.1761 -12.6745 7.0669 -1.5849 7.1250 -0.0000 -0.0000 10.3137 -22.7686 5.6072
0.00 0.00 0.00 -0.8058 -3.3554 5.3133 0.0000 0.0000 0.0000 -18.8853 -5.8700 -23.8802 2.5240 9.8813 28.5933 0.1587 1.2606 -8.0956 0.2437 -3.1770 -8.7720 0.0000 0.0000 0.0000 17.2921 4.1722 -11.8315 -9.3121 -17.0044 57.1632 0.1206 -6.4922 -0.1414 -0.0484 -1.4197 3.9045 -1.1941 0.8670 8.9622 2.3427 1.1039 2.9281 2.9795 0.5419 -2.0566 -3.1465 3.1509 -10.7932 -1.9341 5.5879 24.8091 0.4941 2.0904 9.5907 0.0000 0.0000 0.0000 -92.1430 -5.3401 47.4167 37.4706 -46.4979 -16.5805 -0.0000 0.0000 -16.8470 11.1957 20.5637 3.9769 -7.1250 0.0000 -0.0000 -17.1672 50.1105 -2.2201 0.0000 0.0000 0.0000 84.4662 1.7762 35.7918 -37.9027 46.7771 -16.8947 0.0000 -0.0000 -3.9632 -12.6187 8.9539 -1.9955 7.1250 -0.0000 -0.0000 10.2586 -20.8700 6.0267
0.00 0.00 0.00 0.8050 -1.8992 3.9314 0.0000 0.0000 0.0000 -22.5476 -5.7510 -18.6588 2.5751 9.9732 28.8900 0.3721 0.8328 -11.8539 0.2004 -2.8828 -7.9527 0.0000 0.0000 0.0000 13.9207 7.3033 -21.4152 -12.7431 -18.6874 68.3258 0.2224 -8.4757 -4.7914 -0.3676 -3.8947 10.7805 -2.7215 -0.0006 9.6415 2.1196 -0.1983 3.0374 3.7571 -0.1056 -2.2295 -2.9946 3.4396 -9.4977 -1.5131 5.7565 24.2320 0.5941 2.2582 9.1278 0.0000 0.0000 0.0000 -90.3389 -4.8894 43.7493 50.6866 -53.2687 -26.7234 -0.0000 0.0000 -19.8849 13.5971 22.5212 5.2929 -7.1250 0.0000 -0.0000 -15.7358 52.3976 -2.9241 0.0000 0.0000 0.0000 83.2570 -2.7673 38.7892 -70.2464 58.4730 -42.9806 0.0000 -0.0000 -5.2579 -12.7808 9.7078 -2.1906 7.1250 -0.0000 -0.0000 10.1120 -20.1033 6.1152
0.00 0.00 0.00 1.3364 -1.1123 3.8704 0.0000 0.0000 0.0000 -23.6177 -6.0438 -17.5352 2.6188 10.0507 29.1411 0.4462 0.7804 -12.9247 0.2558 -3.2542 -8.9872 0.0000 0.0000 0.0000 12.9470 8.0414 -24.8445 -13.1131 -18.8226 69.4766 0.1945 -8.2727 -5.9911 -0.2641 -3.3059 9.1316 -3.0244 -0.3313 9.5427 2.0490 -0.6646 3.2093 3.9044 -0.3460 -1.9531 -3.9175 2.9897 -9.1818 -0.4972 5.0268 24.0039 1.0067 1.9507 8.9384 -0.0000 -0.0000 0.0000 -90.0161 -4.3174 42.6275 60.8421 -56.5302 -35.0427 -0.0000 0.0000 -21.4855 14.2260 23.7573 5.8316 -7.1250 0.0000 -0.0000 -15.7051 53.7120 -3.4298 -0.0000 -0.0000 0.0000 82.8427 -4.4623 39.5053 -90.8348 59.9974 -60.7229 0.0000 -0.0000 -6.0897 -12.3227 9.2570 -2.0126 7.1250 -0.0000 -0.0000 10.4562 -20.5778 6.2167
0.00 0.00 0.00 1.7538 -0.6188 3.5751 0.0000 0.0000 0.0000 -24.4925 -6.0261 -16.5877 2.7411 10.2636 29.8347 0.5424 0.5392 -14.1188 0.2773 -3.3873 -9.3590 0.0000 0.0000 0.0000 12.1839 8.8652 -27.8899 -13.1077 -18.8207 69.4597 0.1169 -7.5725 -7.6148 -0.2376 -3.1372 8.6609 -3.3358 -0.5466 10.6868 2.0301 -1.0088 3.1692 4.1245 -0.5029 -2.5869 -3.1969 3.1535 -9.1686 -0.9955 5.2299 23.7912 0.7355 2.0622 8.8931 -0.0000 -0.0000 0.0000 -89.9248 -3.2736 41.0628 74.5881 -59.0832 -46.6940 -0.0000 0.0000 -22.8271 13.6518 23.4492 5.5206 -7.1250 0.0000 -0.0000 -16.1214 53.3086 -3.3634 -0.0000 -0.0000 0.0000 82.6915 -5.8192 40.1546 -111.8446 58.1179 -78.7984 0.0000 -0.0000 -6.2156 -11.4567 10.4745 -2.1101 7.1250 -0.0000 -0.0000 11.0156 -19.3971 6.8590
0.00 0.00 0.00 2.2353 -0.0080 3.6750 0.0000 0.0000 0.0000 -25.3430 -6.1699 -15.9937 2.8630 10.4700 30.5125 0.6321 0.2146 -15.1032 0.2675 -3.3270 -9.1905 0.0000 0.0000 0.0000 11.3698 9.7217 -31.0637 -12.6860 -18.6659 68.1475 -0.0037 -6.5102 -9.3812 -0.1655 -2.6209 7.2251 -3.8629 -0.8624 11.0139 2.1372 -1.4882 3.3289 4.6025 -0.7455 -2.5353 -3.4359 3.1006 -9.0479 -0.7929 5.1250 23.3322 0.8238 2.0251 8.7009 0.0000 -0.0000 0.0000 -90.3662 -2.6059 39.2912 92.2749 -59.9804 -61.9700 -0.0000 0.0000 -23.0987 10.5708 22.4450 4.0754 -7.1250 0.0000 -0.0000 -18.6224 51.8103 -3.2156 0.0000 -0.0000 0.0000 82.1146 -5.7681 41.1440 -128.2389 53.6815 -92.4131 0.0000 -0.0000 -6.9538 -10.6330 11.7770 -2.1944 7.1250 -0.0000 -0.0000 11.5370 -18.1397 7.5260
0.00 0.00 0.00 2.0728 0.9007 3.6461 0.0000 0.0000 0.0000 -25.5932 -7.0768 -15.0963 3.0884 10.8367 31.7313 0.7502 0.4327 -16.5295 0.3156 -3.6113 -9.9856 0.0000 0.0000 0.0000 11.4340 10.4077 -34.4996 -11.4677 -18.1565 64.2914 -0.1055 -6.4937 -11.5675 -0.0962 -2.0004 5.5069 -3.3822 -1.2485 12.4362 2.4149 -1.9696 3.8245 4.7234 -0.9886 -2.7493 -3.4077 2.9430 -11.6527 -0.7669 5.0504 24.1296 0.8866 1.9497 9.4682 -0.0000 0.0000 0.0000 -91.0451 -3.2849 37.8990 114.1572 -57.6759 -80.7575 -0.0000 0.0000 -23.0531 10.7046 17.9323 3.3310 -7.1250 0.0000 -0.0000 -16.5698 47.5003 -1.0497 -0.0000 0.0000 0.0000 81.8224 -4.1967 41.8304 -144.0189 45.5001 -104.4910 0.0000 -0.0000 -6.5386 -9.9164 14.4375 -2.4958 7.1250 -0.0000 -0.0000 11.9370 -15.5407 8.4912
0.00 0.00 0.00 2.2542 1.4666 4.0538 0.0000 0.0000 0.0000 -26.2161 -7.5353 -14.5330 3.2445 11.0807 32.5525 0.8670 0.5407 -17.8001 0.2935 -3.4836 -9.6281 0.0000 0.0000 0.0000 11.2686 10.9551 -37.7725 -9.7557 -17.2702 58.6687 -0.0950 -7.5298 -12.6014 -0.0248 -1.0170 2.7956 -3.3709 -1.3858 13.2242 2.5218 -2.1616 4.1207 4.8819 -1.0867 -2.8420 -3.2292 2.6259 -12.2104 -0.4870 4.5017 23.5249 0.8936 1.7512 9.3632 0.0000 -0.0000 0.0000 -91.2792 -5.0086 37.0707 130.9677 -52.5977 -94.5966 -0.0000 0.0000 -23.1329 8.4797 17.8325 2.6141 -7.1250 0.0000 -0.0000 -18.5610 47.1075 -0.9984 0.0000 -0.0000 0.0000 81.2094 -1.2918 42.5155 -153.6018 37.5992 -110.8705 0.0000 -0.0000 -1.7493 -12.1088 17.8145 -3.7553 7.1250 -0.0000 -0.0000 10.4424 -12.0119 8.1809
0.00 0.00 0.00 3.2261 2.4252 5.4720 0.0000 0.0000 0.0000 -27.9445 -7.4457 -12.8763 3.0962 10.8491 31.7728 1.0163 0.2243 -19.1416 0.1906 -2.8117 -7.7550 0.0000 0.0000 0.0000 10.6264 11.6490 -41.7515 -5.2894 -13.7025 42.0584 0.0901 -7.5128 -8.3947 -0.0162 -0.8225 2.2604 -4.0978 -1.3764 13.7687 2.5398 -2.2540 4.3807 5.3461 -1.1384 -2.8200 -3.7193 1.4123 -12.4255 0.7084 2.5861 20.3681 1.1337 1.0041 8.3186 0.0000 0.0000 0.0000 -90.2557 -11.2581 35.7221 144.0993 -45.4447 -104.5483 -0.0000 0.0000 -24.2872 5.1978 10.8171 0.9781 -7.1250 0.0000 -0.0000 -19.0616 40.0878 2.4094 0.0000 0.0000 0.0000 80.0367 7.0109 38.9321 -160.4944 30.0421 -114.7184 0.0000 0.0000 2.4070 -11.1867 18.7855 -3.6440 7.1250 -0.0000 -0.0000 11.0482 -11.1272 8.8793
0.00 0.00 0.00 3.9372 2.6454 5.8891 0.0000 0.0000 0.0000 -29.0307 -6.5084 -11.6099 2.9067 10.5424 30.7517 1.1320 -0.3284 -20.0135 0.0808 -1.8330 -5.0445 0.0000 0.0000 0.0000 10.4609 11.8086 -42.1499 -3.3741 -11.2774 33.2211 0.1343 -6.4984 -1.9039 -0.1072 2.1115 -5.8138 -4.4661 -1.1977 13.5079 2.3585 -2.0672 4.1006 5.3323 -1.0337 -2.9891 -4.1921 0.5197 -11.6744 1.5983 1.2265 20.1818 1.3593 0.4195 8.1406 -0.0000 -0.0000 0.0000 -89.4013 -16.5848 32.6727 132.0460 -52.1362 -95.4506 -0.0000 0.0000 -28.3868 5.4018 11.4677 1.0770 -7.1250 0.0000 -0.0000 -19.0817 40.7221 2.1000 -0.0000 -0.0000 0.0000 80.4807 10.9658 31.5611 -152.4455 38.7029 -110.1561 0.0000 0.0000 1.4461 -13.8879 19.9504 -4.8223 7.1250 -0.0000 -0.0000 9.3255 -9.6925 7.7282
0.00 0.00 0.00 4.4557 2.6607 6.1057 0.0000 0.0000 0.0000 -29.6969 -6.0530 -10.8033 2.7899 10.3469 30.1075 1.1538 -0.5166 -20.1467 0.1267 -2.2945 -6.3203 0.0000 0.0000 0.0000 10.2072 12.0352 -42.0113 -2.6501 -10.1059 29.3204 0.1303 -6.8299 0.0811 -0.0533 1.4894 -4.0965 -4.8590 -1.0569 12.9474 2.3147 -1.9136 4.0222 5.4672 -0.9631 -2.7730 -4.7651 -0.1221 -11.9356 1.9423 0.3999 20.7961 1.4923 0.0133 8.4198 0.0000 -0.0000 0.0000 -89.4181 -19.8597 30.6479 116.8277 -57.0977 -83.0071 -0.0000 0.0000 -24.0669 6.5783 11.1204 1.2741 -7.1250 0.0000 -0.0000 -17.9864 40.4951 2.0746 0.0000 -0.0000 0.0000 80.3578 12.4576 27.5293 -144.2301 45.3541 -104.6414 0.0000 0.0000 0.6988 -14.2133 19.5697 -4.8493 7.1250 -0.0000 -0.0000 9.1049 -10.0407 7.4756
0.00 0.00 0.00 4.8232 2.6412 6.1396 0.0000 0.0000 0.0000 -30.2363 -5.3338 -9.7142 2.6458 10.0983 29.2958 1.1727 -0.6849 -20.2609 0.1780 -2.7175 -7.4931 0.0000 0.0000 0.0000 10.4750 11.8654 -41.8486 -2.1286 -9.1289 26.1993 0.1109 -7.6848 2.4506 -0.1815 2.7437 -7.5661 -5.0891 -1.0719 12.3286 2.2660 -1.9384 3.9605 5.5280 -0.9839 -2.4909 -4.5457 -0.3444 -11.8122 1.5128 0.1350 20.8844 1.2836 -0.1390 8.4390 -0.0000 0.0000 0.0000 -89.2572 -23.2973 28.4799 96.4971 -59.8399 -65.6236 -0.0000 0.0000 -19.8999 6.4431 11.7669 1.3193 -7.1250 0.0000 -0.0000 -18.2885 41.1001 1.8280 -0.0000 0.0000 0.0000 79.6073 16.9026 24.5527 -129.4011 53.2342 -93.3469 0.0000 0.0000 0.2924 -13.3587 17.7672 -4.1447 7.1250 -0.0000 -0.0000 9.6224 -11.9438 7.5323
